<mxfile host="65bd71144e" modified="2020-11-16T14:44:59.972Z" agent="5.0 (Windows NT 10.0; Win64; x64) AppleWebKit/537.36 (KHTML, like Gecko) Code/1.51.1 Chrome/83.0.4103.122 Electron/9.3.3 Safari/537.36" version="13.6.5" etag="spQFXAB0cBZ62KihYDNi">
    <diagram id="Fn4Ffduz90RVL-SmTgP7" name="第 1 页">
        <mxGraphModel dx="493" dy="646" grid="1" gridSize="10" guides="1" tooltips="1" connect="1" arrows="1" fold="1" page="1" pageScale="1" pageWidth="1200" pageHeight="1600" math="0" shadow="0">
            <root>
                <mxCell id="0"/>
                <mxCell id="57" value="虚线" style="" parent="0"/>
                <mxCell id="55" value="" style="endArrow=none;dashed=1;html=1;fontSize=16;strokeWidth=2;entryX=1;entryY=1;entryDx=0;entryDy=0;entryPerimeter=0;exitX=0;exitY=0;exitDx=20;exitDy=60;exitPerimeter=0;" edge="1" parent="57" source="33" target="54">
                    <mxGeometry width="50" height="50" relative="1" as="geometry">
                        <mxPoint x="360" y="330" as="sourcePoint"/>
                        <mxPoint x="410" y="280" as="targetPoint"/>
                    </mxGeometry>
                </mxCell>
                <mxCell id="58" value="" style="endArrow=none;dashed=1;html=1;fontSize=16;strokeWidth=2;entryX=1;entryY=1;entryDx=0;entryDy=0;entryPerimeter=0;exitX=0;exitY=0;exitDx=20;exitDy=60;exitPerimeter=0;" edge="1" parent="57">
                    <mxGeometry width="50" height="50" relative="1" as="geometry">
                        <mxPoint x="200" y="360.0000000000001" as="sourcePoint"/>
                        <mxPoint x="520" y="359.9999999999999" as="targetPoint"/>
                    </mxGeometry>
                </mxCell>
                <mxCell id="59" value="" style="endArrow=none;dashed=1;html=1;fontSize=16;strokeWidth=2;entryX=1;entryY=1;entryDx=0;entryDy=0;entryPerimeter=0;exitX=0;exitY=0;exitDx=20;exitDy=60;exitPerimeter=0;" edge="1" parent="57">
                    <mxGeometry width="50" height="50" relative="1" as="geometry">
                        <mxPoint x="220" y="400.0000000000001" as="sourcePoint"/>
                        <mxPoint x="540" y="399.9999999999999" as="targetPoint"/>
                    </mxGeometry>
                </mxCell>
                <mxCell id="60" value="" style="endArrow=none;dashed=1;html=1;fontSize=16;strokeWidth=2;entryX=1;entryY=1;entryDx=0;entryDy=0;entryPerimeter=0;exitX=0;exitY=0;exitDx=20;exitDy=60;exitPerimeter=0;" edge="1" parent="57">
                    <mxGeometry width="50" height="50" relative="1" as="geometry">
                        <mxPoint x="220" y="440" as="sourcePoint"/>
                        <mxPoint x="540" y="440" as="targetPoint"/>
                    </mxGeometry>
                </mxCell>
                <mxCell id="1" parent="0"/>
                <mxCell id="23" value="&lt;font style=&quot;font-size: 16px&quot;&gt;&amp;nbsp; 1&amp;nbsp; &amp;nbsp; &amp;nbsp; &amp;nbsp;物理层&lt;/font&gt;" style="shape=cube;whiteSpace=wrap;html=1;boundedLbl=1;backgroundOutline=1;darkOpacity=0.05;darkOpacity2=0.1;size=20;flipV=0;flipH=1;shadow=1;sketch=0;align=left;" vertex="1" parent="1">
                    <mxGeometry x="80" y="420" width="140" height="60" as="geometry"/>
                </mxCell>
                <mxCell id="30" value="&lt;font style=&quot;font-size: 16px&quot;&gt;&amp;nbsp; 2&amp;nbsp; &amp;nbsp;数据链路层&lt;/font&gt;" style="shape=cube;whiteSpace=wrap;html=1;boundedLbl=1;backgroundOutline=1;darkOpacity=0.05;darkOpacity2=0.1;size=20;flipV=0;flipH=1;shadow=1;sketch=0;align=left;" vertex="1" parent="1">
                    <mxGeometry x="80" y="380" width="140" height="60" as="geometry"/>
                </mxCell>
                <mxCell id="31" value="&lt;font style=&quot;font-size: 16px&quot;&gt;&amp;nbsp; 3&amp;nbsp; &amp;nbsp; &amp;nbsp; &amp;nbsp;网络层&lt;/font&gt;" style="shape=cube;whiteSpace=wrap;html=1;boundedLbl=1;backgroundOutline=1;darkOpacity=0.05;darkOpacity2=0.1;size=20;flipV=0;flipH=1;shadow=1;sketch=0;align=left;" vertex="1" parent="1">
                    <mxGeometry x="80" y="340" width="140" height="60" as="geometry"/>
                </mxCell>
                <mxCell id="32" value="&lt;font style=&quot;font-size: 16px&quot;&gt;&amp;nbsp; 4&amp;nbsp; &amp;nbsp; &amp;nbsp; &amp;nbsp;运输层&lt;/font&gt;" style="shape=cube;whiteSpace=wrap;html=1;boundedLbl=1;backgroundOutline=1;darkOpacity=0.05;darkOpacity2=0.1;size=20;flipV=0;flipH=1;shadow=1;sketch=0;align=left;" vertex="1" parent="1">
                    <mxGeometry x="80" y="300" width="140" height="60" as="geometry"/>
                </mxCell>
                <mxCell id="33" value="&lt;font style=&quot;font-size: 16px&quot;&gt;&amp;nbsp; 5&amp;nbsp; &amp;nbsp; &amp;nbsp; &amp;nbsp;会话层&lt;/font&gt;" style="shape=cube;whiteSpace=wrap;html=1;boundedLbl=1;backgroundOutline=1;darkOpacity=0.05;darkOpacity2=0.1;size=20;flipV=0;flipH=1;shadow=1;sketch=0;align=left;" vertex="1" parent="1">
                    <mxGeometry x="80" y="260" width="140" height="60" as="geometry"/>
                </mxCell>
                <mxCell id="34" value="&lt;font style=&quot;font-size: 16px&quot;&gt;&amp;nbsp; 6&amp;nbsp; &amp;nbsp; &amp;nbsp; &amp;nbsp;表示层&lt;/font&gt;" style="shape=cube;whiteSpace=wrap;html=1;boundedLbl=1;backgroundOutline=1;darkOpacity=0.05;darkOpacity2=0.1;size=20;flipV=0;flipH=1;shadow=1;sketch=0;align=left;" vertex="1" parent="1">
                    <mxGeometry x="80" y="220" width="140" height="60" as="geometry"/>
                </mxCell>
                <mxCell id="35" value="&lt;font style=&quot;font-size: 16px&quot;&gt;&amp;nbsp; 7&amp;nbsp; &amp;nbsp; &amp;nbsp; &amp;nbsp;应用层&lt;/font&gt;" style="shape=cube;whiteSpace=wrap;html=1;boundedLbl=1;backgroundOutline=1;darkOpacity=0.05;darkOpacity2=0.1;size=20;flipV=0;flipH=1;shadow=1;sketch=0;align=left;" vertex="1" parent="1">
                    <mxGeometry x="80" y="180" width="140" height="60" as="geometry"/>
                </mxCell>
                <mxCell id="36" value="&lt;font style=&quot;font-size: 16px&quot;&gt;网络接口层&lt;/font&gt;" style="shape=cube;whiteSpace=wrap;html=1;boundedLbl=1;backgroundOutline=1;darkOpacity=0.05;darkOpacity2=0.1;size=20;flipV=0;flipH=1;shadow=1;sketch=0;align=center;" vertex="1" parent="1">
                    <mxGeometry x="280" y="380" width="180" height="100" as="geometry"/>
                </mxCell>
                <mxCell id="38" value="&lt;font style=&quot;font-size: 16px&quot;&gt;网际层&lt;/font&gt;" style="shape=cube;whiteSpace=wrap;html=1;boundedLbl=1;backgroundOutline=1;darkOpacity=0.05;darkOpacity2=0.1;size=20;flipV=0;flipH=1;shadow=1;sketch=0;align=center;" vertex="1" parent="1">
                    <mxGeometry x="280" y="340" width="180" height="60" as="geometry"/>
                </mxCell>
                <mxCell id="39" value="&lt;font style=&quot;font-size: 16px&quot;&gt;运输层(TCP/UDP)&lt;/font&gt;" style="shape=cube;whiteSpace=wrap;html=1;boundedLbl=1;backgroundOutline=1;darkOpacity=0.05;darkOpacity2=0.1;size=20;flipV=0;flipH=1;shadow=1;sketch=0;align=center;" vertex="1" parent="1">
                    <mxGeometry x="280" y="300" width="180" height="60" as="geometry"/>
                </mxCell>
                <mxCell id="42" value="&lt;font style=&quot;font-size: 16px ; line-height: 150%&quot;&gt;应用层&lt;br&gt;(各种应用层协议)&lt;br&gt;&lt;/font&gt;" style="shape=cube;whiteSpace=wrap;html=1;boundedLbl=1;backgroundOutline=1;darkOpacity=0.05;darkOpacity2=0.1;size=20;flipV=0;flipH=1;shadow=1;sketch=0;align=center;" vertex="1" parent="1">
                    <mxGeometry x="280" y="180" width="180" height="140" as="geometry"/>
                </mxCell>
                <mxCell id="43" value="&lt;font style=&quot;font-size: 16px&quot;&gt;&amp;nbsp; 1&amp;nbsp; &amp;nbsp; &amp;nbsp; &amp;nbsp;物理层&lt;/font&gt;" style="shape=cube;whiteSpace=wrap;html=1;boundedLbl=1;backgroundOutline=1;darkOpacity=0.05;darkOpacity2=0.1;size=20;flipV=0;flipH=1;shadow=1;sketch=0;align=left;" vertex="1" parent="1">
                    <mxGeometry x="520" y="420" width="160" height="60" as="geometry"/>
                </mxCell>
                <mxCell id="44" value="&lt;font style=&quot;font-size: 16px&quot;&gt;&amp;nbsp; 2&amp;nbsp; &amp;nbsp;数据链路层&lt;/font&gt;" style="shape=cube;whiteSpace=wrap;html=1;boundedLbl=1;backgroundOutline=1;darkOpacity=0.05;darkOpacity2=0.1;size=20;flipV=0;flipH=1;shadow=1;sketch=0;align=left;" vertex="1" parent="1">
                    <mxGeometry x="520" y="380" width="160" height="60" as="geometry"/>
                </mxCell>
                <mxCell id="45" value="&lt;font style=&quot;font-size: 16px&quot;&gt;&amp;nbsp; 3&amp;nbsp; &amp;nbsp; &amp;nbsp; &amp;nbsp;网络层&lt;/font&gt;" style="shape=cube;whiteSpace=wrap;html=1;boundedLbl=1;backgroundOutline=1;darkOpacity=0.05;darkOpacity2=0.1;size=20;flipV=0;flipH=1;shadow=1;sketch=0;align=left;" vertex="1" parent="1">
                    <mxGeometry x="520" y="340" width="160" height="60" as="geometry"/>
                </mxCell>
                <mxCell id="50" value="&lt;b&gt;OSI 七层协议&lt;/b&gt;" style="text;html=1;strokeColor=none;fillColor=none;align=center;verticalAlign=middle;whiteSpace=wrap;rounded=0;shadow=0;sketch=0;fontSize=16;" vertex="1" parent="1">
                    <mxGeometry x="80" y="500" width="140" height="20" as="geometry"/>
                </mxCell>
                <mxCell id="51" value="&lt;b&gt;TCP/IP 四层协议&lt;/b&gt;" style="text;html=1;strokeColor=none;fillColor=none;align=center;verticalAlign=middle;whiteSpace=wrap;rounded=0;shadow=0;sketch=0;fontSize=16;" vertex="1" parent="1">
                    <mxGeometry x="280" y="500" width="180" height="20" as="geometry"/>
                </mxCell>
                <mxCell id="52" value="&lt;b&gt;五层协议&lt;/b&gt;" style="text;html=1;strokeColor=none;fillColor=none;align=center;verticalAlign=middle;whiteSpace=wrap;rounded=0;shadow=0;sketch=0;fontSize=16;" vertex="1" parent="1">
                    <mxGeometry x="520" y="500" width="160" height="20" as="geometry"/>
                </mxCell>
                <mxCell id="53" value="&lt;font style=&quot;font-size: 16px&quot;&gt;&amp;nbsp; 4&amp;nbsp; &amp;nbsp; &amp;nbsp; &amp;nbsp;运输层&lt;/font&gt;" style="shape=cube;whiteSpace=wrap;html=1;boundedLbl=1;backgroundOutline=1;darkOpacity=0.05;darkOpacity2=0.1;size=20;flipV=0;flipH=1;shadow=1;sketch=0;align=left;" vertex="1" parent="1">
                    <mxGeometry x="520" y="300" width="160" height="60" as="geometry"/>
                </mxCell>
                <mxCell id="54" value="&lt;font style=&quot;font-size: 16px&quot;&gt;&amp;nbsp; 5&amp;nbsp; &amp;nbsp; &amp;nbsp; &amp;nbsp;应用层&lt;/font&gt;" style="shape=cube;whiteSpace=wrap;html=1;boundedLbl=1;backgroundOutline=1;darkOpacity=0.05;darkOpacity2=0.1;size=20;flipV=0;flipH=1;shadow=1;sketch=0;align=left;" vertex="1" parent="1">
                    <mxGeometry x="520" y="180" width="160" height="140" as="geometry"/>
                </mxCell>
            </root>
        </mxGraphModel>
    </diagram>
</mxfile>